<?xml version="1.0" standalone="no"?>
<!DOCTYPE svg PUBLIC "-//W3C//DTD SVG 20010904//EN"
 "http://www.w3.org/TR/2001/REC-SVG-20010904/DTD/svg10.dtd">
<svg version="1.0" xmlns="http://www.w3.org/2000/svg"
 width="512.000000pt" height="512.000000pt" viewBox="0 0 512.000000 512.000000"
 preserveAspectRatio="xMidYMid meet">
<metadata>
Created by potrace 1.14, written by Peter Selinger 2001-2017
</metadata>
<g transform="translate(0.000000,512.000000) scale(0.100000,-0.100000)"
fill="#000000" stroke="none">
<path d="M2676 4153 c-1 -1 -20 -3 -41 -4 -22 -1 -50 -8 -62 -16 -17 -10 -23
-10 -23 -1 0 6 -7 3 -15 -8 -13 -16 -16 -17 -25 -4 -6 10 -10 11 -10 3 0 -7
-12 -13 -26 -13 -16 0 -23 -4 -18 -11 5 -8 -1 -10 -19 -7 -17 3 -28 0 -31 -9
-3 -8 -10 -11 -16 -8 -5 3 -10 1 -10 -6 0 -7 -3 -9 -7 -6 -3 4 -12 2 -20 -4
-7 -6 -13 -8 -13 -3 0 4 -7 -1 -16 -12 -8 -10 -13 -14 -10 -7 5 8 0 8 -18 0
-13 -7 -22 -15 -20 -19 3 -4 -2 -5 -10 -2 -9 3 -16 1 -16 -6 0 -6 -4 -8 -10
-5 -5 3 -10 1 -10 -5 0 -7 -6 -10 -14 -7 -8 3 -17 -1 -20 -10 -4 -8 -13 -13
-20 -10 -8 3 -17 -1 -20 -9 -3 -9 -10 -12 -16 -9 -5 3 -10 2 -10 -4 0 -5 -10
-13 -22 -17 -18 -5 -136 -78 -173 -107 -40 -30 -60 -50 -60 -58 0 -6 -11 -19
-25 -30 -14 -12 -19 -18 -11 -14 10 6 11 2 6 -16 -4 -13 -13 -30 -19 -38 -8
-12 -8 -13 2 -7 8 5 11 3 10 -6 -5 -23 -21 -27 -44 -9 -18 14 -44 18 -129 18
-69 1 -111 6 -121 14 -12 10 -15 10 -12 -2 2 -10 -5 -13 -26 -11 -15 2 -26 0
-23 -5 3 -4 -9 -8 -26 -9 -40 -1 -68 -7 -86 -18 -10 -6 -12 -5 -7 2 5 8 2 10
-8 6 -9 -3 -16 -11 -16 -18 0 -6 -5 -4 -10 4 -5 8 -10 10 -10 5 0 -6 -10 -12
-22 -12 -13 -1 -24 -7 -26 -13 -2 -5 -8 -7 -13 -4 -6 3 -16 0 -24 -6 -8 -6
-19 -9 -25 -5 -5 3 -10 -2 -10 -12 0 -14 -2 -15 -9 -4 -6 9 -11 10 -15 2 -4
-6 -12 -9 -17 -6 -5 4 -9 1 -9 -5 0 -6 -8 -10 -18 -8 -9 2 -16 -2 -15 -8 1 -7
-6 -10 -16 -7 -10 3 -22 0 -25 -6 -4 -6 -16 -11 -26 -11 -10 0 -20 -4 -22 -10
-1 -5 -12 -11 -23 -14 -43 -9 -65 -19 -65 -29 0 -6 -3 -8 -6 -4 -4 3 -26 -5
-51 -18 -24 -14 -50 -25 -58 -25 -8 0 -15 -4 -15 -9 0 -10 -60 -37 -73 -33 -5
1 -6 -2 -2 -8 3 -5 -1 -10 -9 -10 -9 0 -16 -5 -16 -12 0 -6 -3 -9 -6 -5 -3 3
-14 -2 -23 -11 -36 -34 -66 -57 -73 -55 -3 1 -9 -4 -12 -13 -4 -10 -1 -13 7
-9 6 4 5 1 -4 -7 -17 -14 -42 -78 -31 -78 4 0 0 -5 -8 -10 -13 -9 -13 -11 0
-20 12 -8 12 -10 -5 -10 -17 0 -17 -2 -5 -10 10 -6 11 -10 3 -10 -7 0 -13 -7
-13 -16 0 -9 5 -13 13 -9 6 4 3 -1 -7 -9 -11 -9 -14 -16 -8 -16 9 0 10 -5 2
-19 -7 -14 -6 -21 3 -24 9 -3 9 -7 -1 -19 -10 -13 -10 -17 0 -20 10 -4 10 -8
-1 -21 -7 -10 -9 -17 -4 -17 5 0 9 -9 10 -20 1 -13 -2 -18 -10 -13 -7 4 -7 1
1 -10 8 -9 11 -21 7 -27 -3 -5 -2 -10 4 -10 6 0 7 -7 4 -17 -5 -12 -3 -14 8
-8 12 8 12 6 0 -8 -9 -12 -10 -17 -2 -17 7 0 10 -4 6 -9 -3 -5 -1 -12 5 -16 6
-4 8 -11 5 -16 -4 -5 -1 -9 6 -9 8 0 7 -5 -2 -17 -10 -11 -10 -14 -1 -9 11 6
17 -11 13 -36 0 -5 4 -8 11 -8 6 0 3 -9 -7 -20 -10 -11 -22 -20 -28 -20 -5 0
-18 -10 -28 -22 -11 -11 -19 -18 -19 -15 0 4 -14 -7 -30 -23 -17 -16 -30 -32
-30 -35 0 -3 -15 -20 -32 -37 -18 -17 -27 -28 -20 -24 6 4 12 2 12 -3 0 -6 -4
-11 -9 -11 -11 0 -32 -56 -24 -64 3 -3 1 -12 -5 -19 -7 -8 -9 -17 -6 -20 9 -8
12 -97 5 -97 -9 0 -5 -95 4 -110 6 -9 4 -11 -4 -5 -10 6 -11 3 -2 -13 14 -25
14 -35 1 -27 -5 3 -3 -6 5 -21 7 -15 11 -33 8 -40 -3 -8 -1 -14 4 -14 5 0 10
-15 11 -32 2 -18 7 -35 12 -36 6 -2 8 -8 4 -13 -3 -5 0 -9 7 -9 7 0 9 -3 6 -6
-4 -4 2 -19 13 -34 11 -15 16 -31 12 -35 -4 -5 1 -5 11 -2 11 4 16 3 12 -3 -3
-6 1 -13 9 -16 9 -3 16 -13 16 -22 0 -8 3 -12 6 -9 4 3 19 -7 34 -23 16 -17
33 -30 39 -30 6 0 16 -9 23 -20 7 -11 18 -20 25 -20 7 0 13 -5 13 -11 0 -5 4
-7 10 -4 5 3 10 1 10 -5 0 -6 4 -9 9 -6 5 3 14 0 20 -8 6 -7 29 -21 51 -31 22
-10 40 -21 40 -25 0 -4 6 -7 13 -7 24 -1 41 -8 61 -25 10 -10 22 -15 27 -13 4
3 15 -2 23 -11 9 -8 16 -12 16 -7 0 4 6 1 13 -7 12 -15 30 -22 55 -23 6 0 12
-6 12 -13 0 -7 8 -11 17 -10 10 2 26 -7 36 -18 10 -12 15 -15 12 -8 -6 11 -3
11 13 1 12 -7 18 -17 15 -22 -3 -5 0 -8 8 -5 8 3 20 -1 27 -9 8 -7 18 -11 23
-8 5 4 9 -1 9 -10 0 -9 4 -14 9 -10 5 3 17 -3 27 -12 10 -10 21 -18 25 -18 5
0 18 -8 29 -18 11 -9 25 -17 30 -17 6 0 10 -4 10 -10 0 -5 6 -10 14 -10 7 0
19 -7 26 -15 7 -8 16 -12 21 -9 5 3 9 -2 9 -11 0 -9 5 -13 10 -10 6 3 10 1 10
-4 0 -6 4 -10 9 -9 5 2 24 -8 42 -22 19 -13 40 -25 48 -27 8 -1 18 -8 22 -15
5 -7 9 -8 9 -3 0 6 4 5 8 -1 4 -6 32 -24 62 -40 30 -15 66 -36 79 -46 13 -10
28 -15 34 -11 6 3 7 1 3 -5 -4 -7 -2 -12 4 -12 6 0 16 -5 23 -10 54 -45 109
-80 119 -74 7 4 8 3 4 -4 -4 -7 -1 -12 9 -12 9 0 13 -4 10 -10 -3 -5 3 -10 14
-10 12 0 21 -4 21 -10 0 -5 7 -10 16 -10 8 0 12 -4 9 -10 -3 -5 1 -10 9 -10 9
0 16 -4 16 -10 0 -5 5 -10 11 -10 7 0 20 -10 30 -22 11 -11 19 -18 19 -15 0 4
19 -13 43 -36 44 -46 104 -80 122 -70 5 4 7 2 2 -2 -8 -10 63 -46 75 -39 5 3
8 0 8 -5 0 -6 9 -11 20 -11 11 0 20 -4 20 -9 0 -5 7 -12 16 -15 9 -4 13 -2 8
5 -4 8 0 7 15 0 11 -7 21 -16 21 -22 0 -6 4 -8 9 -4 5 3 15 -1 23 -8 7 -8 19
-12 26 -9 7 2 22 -6 32 -19 11 -12 20 -19 20 -14 0 4 12 0 26 -10 18 -11 24
-12 18 -4 -6 11 -5 12 7 2 8 -6 23 -13 34 -15 11 -1 22 -6 25 -10 3 -4 32 -8
65 -10 33 -2 66 -7 73 -12 6 -4 12 -3 12 2 0 8 36 12 98 12 12 0 22 6 22 13 0
9 3 8 9 -2 6 -9 10 -10 16 -2 5 9 11 9 23 -1 12 -10 14 -10 8 0 -4 7 -1 12 8
12 9 0 16 6 16 13 0 9 2 9 9 -1 11 -18 22 -17 33 1 5 9 16 13 28 10 11 -3 27
0 35 7 8 6 19 9 25 5 5 -3 10 -1 10 4 0 6 5 11 11 11 5 0 7 -6 4 -12 -4 -7 -1
-6 7 3 7 9 23 15 35 14 14 -1 19 3 16 12 -3 7 0 13 6 13 6 0 11 -6 11 -12 0
-7 8 -4 18 8 9 11 27 19 40 18 12 0 22 3 22 8 0 6 7 7 16 4 8 -3 13 -2 10 3
-6 8 72 38 88 33 5 -2 6 4 2 13 -3 9 -2 13 4 10 5 -3 30 3 55 14 25 11 45 17
45 13 0 -4 4 -2 8 4 8 12 112 67 112 59 0 -3 6 0 14 7 8 7 11 18 8 23 -3 6 1
4 10 -3 9 -7 18 -9 20 -3 1 5 10 11 18 13 22 5 39 22 32 33 -3 6 1 4 10 -3 13
-10 17 -10 22 3 3 8 15 15 26 15 14 0 19 4 14 12 -5 8 -2 9 9 5 10 -3 17 -2
17 3 0 6 7 10 16 10 9 0 12 5 8 13 -5 8 -2 8 9 -2 11 -8 17 -9 17 -3 0 6 10
16 21 23 17 9 20 8 14 -2 -5 -7 3 -4 17 7 14 10 24 22 21 27 -2 4 5 7 16 7 11
0 26 7 34 15 8 8 17 12 19 9 3 -2 17 7 31 20 15 14 27 21 27 15 0 -5 6 -4 14
3 8 7 12 16 10 20 -3 4 5 5 17 3 12 -2 19 -2 15 2 -6 7 43 40 57 39 5 -1 15
10 22 24 8 14 14 21 15 17 0 -8 69 40 82 58 4 5 8 6 8 2 0 -4 11 4 24 18 14
15 27 26 30 25 4 0 12 4 19 10 48 41 62 50 74 50 8 0 12 4 9 9 -3 5 8 14 25
20 17 6 28 15 24 21 -3 6 0 7 9 4 9 -4 18 1 22 10 3 9 10 13 15 10 5 -3 12 2
15 10 3 9 10 14 14 11 5 -3 15 4 23 15 7 11 17 17 20 13 4 -3 7 -1 7 6 0 8 6
11 16 7 8 -3 13 -2 9 3 -3 5 9 20 27 33 39 27 78 67 78 80 0 5 5 6 10 3 6 -3
13 2 17 12 4 10 15 24 25 31 10 7 18 19 18 27 0 8 8 19 18 24 9 6 13 11 8 11
-6 0 -1 7 10 16 10 8 13 13 7 9 -19 -9 -16 6 4 22 12 10 13 12 3 8 -9 -4 -8
-1 3 8 10 8 16 21 15 28 -2 8 2 13 8 12 5 -1 11 9 12 23 1 13 4 35 5 49 1 14
4 25 7 25 3 0 6 17 5 38 0 20 4 40 10 44 6 5 5 8 -3 8 -9 0 -11 7 -7 21 5 14
3 19 -3 15 -6 -4 -8 2 -5 14 3 11 2 28 -2 37 -3 10 -7 20 -7 23 -1 3 -8 11
-17 18 -9 8 -11 11 -4 8 8 -5 8 0 0 18 -7 13 -16 22 -21 19 -5 -4 -6 -1 -2 6
4 6 2 18 -4 26 -10 12 -10 15 1 16 8 0 5 4 -6 9 -12 5 -14 9 -6 9 11 1 10 5
-5 16 -10 8 -15 15 -11 15 4 0 -2 10 -13 22 -11 12 -18 28 -16 35 3 7 2 13 -3
13 -4 0 -14 12 -22 28 -16 31 -40 52 -51 46 -5 -3 -8 0 -8 6 0 15 -25 40 -40
40 -6 0 -18 7 -27 15 -8 8 -18 13 -23 10 -9 -6 -7 96 3 112 4 6 3 15 -3 18 -7
5 -8 11 -1 19 5 6 8 24 7 39 -2 15 0 27 4 27 4 0 6 15 3 33 -2 17 -5 40 -6 50
-1 9 -5 17 -10 17 -4 0 -6 4 -2 9 3 5 -2 16 -10 24 -8 9 -15 22 -15 31 0 8 -5
18 -12 22 -7 5 -8 3 -3 -7 8 -12 6 -12 -8 0 -9 7 -15 16 -12 20 2 4 -5 15 -16
24 -10 9 -19 13 -19 9 0 -4 -5 1 -11 11 -5 9 -16 17 -24 17 -8 0 -19 9 -25 20
-6 11 -20 20 -30 20 -11 0 -20 4 -20 9 0 5 -13 12 -30 16 -17 4 -30 13 -30 22
0 9 -6 13 -14 10 -8 -3 -31 7 -52 22 -22 16 -47 27 -56 26 -11 -2 -18 3 -18
12 0 9 -6 13 -14 10 -7 -3 -18 -1 -23 4 -5 5 -21 10 -36 11 -15 1 -27 6 -27
10 0 4 -12 8 -26 8 -17 0 -23 4 -18 12 5 8 2 9 -11 5 -9 -4 -24 -2 -31 4 -8 6
-21 9 -29 5 -8 -3 -15 -2 -15 2 0 4 -9 8 -20 9 -13 1 -18 -3 -14 -10 3 -7 -2
-3 -10 7 -9 11 -16 16 -16 12 0 -4 -7 -1 -15 8 -18 17 -20 30 -3 20 7 -4 8 -3
4 4 -4 7 -15 12 -24 13 -9 0 -12 3 -5 5 7 3 -2 20 -25 45 -20 21 -42 44 -48
51 -22 25 -59 53 -66 50 -5 -1 -8 5 -8 13 0 8 -3 14 -7 14 -21 -3 -33 2 -30
14 1 6 -4 11 -11 9 -7 -1 -15 5 -18 13 -4 8 -11 15 -18 15 -6 0 -18 9 -26 19
-7 11 -17 18 -21 16 -4 -3 -9 2 -13 10 -3 8 -11 15 -17 15 -6 0 -23 12 -37 28
-13 15 -21 20 -17 12 5 -8 -1 -6 -12 5 -11 11 -32 29 -47 40 -16 11 -34 26
-42 33 -8 7 -14 10 -14 6 0 -4 -8 3 -19 14 -10 12 -24 22 -30 22 -7 0 -9 5 -6
10 3 6 -1 10 -10 10 -8 0 -18 7 -21 15 -4 8 -11 12 -17 8 -6 -3 -7 -1 -3 6 4
6 0 14 -8 17 -9 3 -14 9 -11 14 2 4 -4 16 -13 26 -10 10 -19 21 -19 24 -7 24
-17 39 -24 35 -4 -3 -6 4 -4 15 2 11 -1 20 -8 20 -7 0 -19 9 -27 19 -7 11 -17
18 -22 15 -4 -3 -5 3 -1 13 3 10 3 15 -1 11 -5 -4 -19 5 -32 19 -13 14 -24 20
-24 13 0 -8 -8 -4 -19 8 -10 12 -25 22 -34 22 -9 0 -22 8 -29 19 -7 10 -21 17
-30 15 -10 -1 -18 2 -18 7 0 6 -4 7 -10 4 -5 -3 -10 0 -10 7 0 9 -3 9 -10 -2
-6 -9 -10 -10 -10 -3 0 18 -70 38 -80 23 -5 -8 -9 -6 -14 6 -6 16 -8 16 -16 4
-6 -8 -10 -10 -10 -5 0 8 -126 16 -134 8z"/>
</g>
</svg>
